<svg width="33" height="33" viewBox="0 0 33 33" fill="none" xmlns="http://www.w3.org/2000/svg">
<circle cx="16.5" cy="16.5" r="16.5" fill="white"/>
<path d="M24.235 12.1925C23.7467 11.324 23.2169 11.1643 22.138 11.1035C21.0603 11.0304 18.3501 11 16.0022 11C13.6499 11 10.9386 11.0304 9.862 11.1024C8.78537 11.1643 8.25437 11.3229 7.76162 12.1925C7.25875 13.0599 7 14.5539 7 17.1841C7 17.1864 7 17.1875 7 17.1875C7 17.1898 7 17.1909 7 17.1909V17.1931C7 19.8121 7.25875 21.3174 7.76162 22.1757C8.25437 23.0443 8.78425 23.2018 9.86087 23.2749C10.9386 23.3379 13.6499 23.375 16.0022 23.375C18.3501 23.375 21.0602 23.3379 22.1391 23.276C23.218 23.2029 23.7479 23.0454 24.2361 22.1769C24.7435 21.3185 25 19.8132 25 17.1942C25 17.1942 25 17.1909 25 17.1886C25 17.1886 25 17.1864 25 17.1853C25 14.5539 24.7435 13.0599 24.235 12.1925ZM13.75 20.5625V13.8125L19.375 17.1875L13.75 20.5625Z" fill="black"/>
</svg>
